<?xml version="1.0" encoding="utf-8"?>
<!-- Generator: Adobe Illustrator 15.0.0, SVG Export Plug-In . SVG Version: 6.00 Build 0)  -->
<!DOCTYPE svg PUBLIC "-//W3C//DTD SVG 1.1//EN" "http://www.w3.org/Graphics/SVG/1.1/DTD/svg11.dtd">
<svg version="1.1" id="Layer_1" xmlns="http://www.w3.org/2000/svg" xmlns:xlink="http://www.w3.org/1999/xlink" x="0px" y="0px"
	 width="68px" height="68px" viewBox="0 0 68 68" enable-background="new 0 0 68 68" xml:space="preserve">
<g>
	<path d="M31,0.1c4.7-0.4,9.5,0.2,14,1.7c6.8,2.3,12.8,6.9,16.9,12.8c2.1,3.1,3.8,6.5,4.8,10.1c1.9,6.7,1.7,13.9-0.6,20.5
		c-1.8,5.1-4.8,9.8-8.7,13.5c-4.3,4.1-9.6,7-15.4,8.4c-7.5,1.8-15.6,1-22.5-2.3c-6.4-3-11.8-8.1-15.2-14.3C2.3,46.9,1,43,0.4,39
		c-0.7-4.7-0.4-9.6,0.9-14.2c1.7-6.1,5.2-11.7,9.8-15.9C16.5,3.9,23.6,0.7,31,0.1L31,0.1z"/>
	<g>
		<path fill="#FFFFFF" d="M21.9,39.5c-1.9-1.9-3.7-3.7-5.6-5.6c1.9-1.9,3.8-3.8,5.8-5.8c0.3-0.3,0.4-0.9,0.2-1.3
			c-0.3-0.6-1.2-0.7-1.6-0.2c-1.9,1.9-3.9,3.9-5.8,5.8c-1.9-1.9-3.8-3.8-5.7-5.7c-0.3-0.3-0.6-0.4-1-0.3c-0.5,0.1-0.9,0.6-0.9,1.2
			c0.1,0.4,0.4,0.7,0.7,1c1.8,1.8,3.5,3.5,5.3,5.3c0,0,0,0.1,0,0.1c-1.9,1.9-3.9,3.9-5.8,5.8c-0.3,0.3-0.4,0.7-0.2,1.1
			c0.1,0.5,0.7,0.8,1.2,0.7c0.4-0.1,0.7-0.4,0.9-0.7c1.8-1.8,3.6-3.6,5.4-5.4c1.9,1.9,3.8,3.8,5.7,5.7c0.3,0.3,0.7,0.4,1.1,0.3
			c0.5-0.1,0.8-0.6,0.8-1.1C22.4,40,22.1,39.7,21.9,39.5z"/>
		<path fill="#FFFFFF" d="M35.3,28.5c-1.1-1.2-2.7-1.9-4.3-2.1c-2-0.3-4,0.2-5.6,1.4c-2.5,1.8-3.7,5.2-2.8,8.2
			c0.5,1.7,1.6,3.2,3,4.2c1.4,1,3.2,1.5,4.9,1.3c1.2-0.1,2.4-0.5,3.4-1.1c0.8-0.5,1.5-1.2,2.1-2c0.3-0.3,0.3-0.8,0.2-1.1
			c-0.2-0.6-1-0.9-1.5-0.6c-0.3,0.2-0.5,0.5-0.8,0.8c-0.7,0.8-1.6,1.4-2.6,1.7c-1.7,0.5-3.6,0.1-4.9-1.1c-1-0.9-1.8-2.1-2-3.4
			c3.5,0,7,0,10.5,0c0.5,0,1.1-0.1,1.6-0.4c0.6-0.4,0.9-1.2,0.8-1.9C37.1,31,36.4,29.6,35.3,28.5z M24.5,32.6
			c0.3-1.3,1.2-2.6,2.4-3.3c1.4-0.9,3.2-1.1,4.8-0.6c1.7,0.6,3.1,2.1,3.5,3.9C31.7,32.6,28.1,32.6,24.5,32.6z"/>
		<path fill="#FFFFFF" d="M59.8,31.1c-0.6-1.6-1.9-3-3.4-3.9c-1.4-0.8-3.1-1.1-4.8-0.9c-2.5,0.3-4.7,1.9-5.8,4.2
			c-0.9,1.8-1,3.9-0.4,5.8c0.5,1.5,1.4,2.7,2.6,3.7c1.3,1,3,1.6,4.6,1.5c1.7,0,3.3-0.6,4.6-1.6c1.3-1,2.3-2.5,2.7-4.1
			C60.4,34.3,60.4,32.6,59.8,31.1z M57.1,37c-0.8,1.1-2,1.9-3.3,2.2c-1.2,0.3-2.5,0.1-3.6-0.5c-1.5-0.7-2.6-2.2-2.9-3.8
			c-0.3-1.5,0.1-3.1,1-4.3c0.8-1.1,2-1.9,3.4-2.1c1.1-0.2,2.3-0.1,3.3,0.4c1.5,0.7,2.7,2.1,3,3.7C58.3,34.2,58,35.8,57.1,37z"/>
		<path fill="#FFFFFF" d="M45.5,27.8c0.2-0.5-0.2-1.2-0.8-1.3c-1.1-0.1-2.3,0.1-3.2,0.8c-0.2-0.5-0.8-0.9-1.3-0.8
			c-0.5,0.1-0.8,0.6-0.8,1.1c0,4.2,0,8.5,0,12.7c0,0.6,0.5,1.2,1.1,1.1c0.6,0,1.1-0.5,1.1-1c0-2.5,0-4.9,0-7.4c0-0.9,0-1.8,0.2-2.7
			c0.1-0.5,0.4-1.1,0.9-1.3c0.6-0.3,1.3-0.4,1.9-0.4C45,28.5,45.4,28.2,45.5,27.8z"/>
		<path fill="#FFFFFF" d="M52.1,32.1c-0.6,0.2-1.1,0.6-1.3,1.2c-0.2,0.6-0.1,1.3,0.3,1.8c0.5,0.6,1.3,0.8,2.1,0.6
			c0.8-0.3,1.4-1.1,1.3-1.9C54.5,32.6,53.3,31.7,52.1,32.1z"/>
	</g>
</g>
</svg>
